<svg width="200" height="200" viewBox="0 0 200 200" version="1.1" xmlns="http://www.w3.org/2000/svg"><title>juicy_quiz_duo_v2</title><g stroke="none" stroke-width="1" fill="none" fill-rule="evenodd"><g><path d="M19 19h162v162H19z"/><g><path d="M54.774 99.288l18.275 11.863a13.984 13.984 0 0 1 4.803 18.16l-9.187 17.738c-3.552 6.857-11.99 9.537-18.848 5.985a13.984 13.984 0 0 1-1.191-.694l-19.908-12.95c-6.473-4.208-8.31-12.867-4.103-19.341l10.816-16.645c4.206-6.474 12.863-8.314 19.34-4.11z" fill="#3072C6"/><path d="M22.934 123.68a13.987 13.987 0 0 1 1.681-3.631l10.701-16.469 5.08 3.04a4.087 4.087 0 0 1 1.4 5.619l-7.968 13.213a4.087 4.087 0 0 1-5.6 1.396l-5.294-3.169z" fill="#235390"/></g><g transform="translate(37.35 21.43)"><path d="M29.323 146.257a7.483 7.483 0 0 1 7.483-7.483h11.89a7.483 7.483 0 0 1 0 14.966h-11.89a7.483 7.483 0 0 1-7.483-7.483zM61.64 146.257a7.483 7.483 0 0 1 7.483-7.483h11.89a7.483 7.483 0 0 1 0 14.966h-11.89a7.483 7.483 0 0 1-7.483-7.483z" fill="#235390"/><path d="M29.323 5.82C39.109 1.94 48.895 0 58.682 0c9.786 0 19.572 1.94 29.358 5.82a45.415 45.415 0 0 1 28.676 42.218V88.45c0 32.051-25.983 58.034-58.034 58.034C26.63 146.484.648 120.5.648 88.45V48.038A45.415 45.415 0 0 1 29.323 5.82z" fill="#3072C6"/><path d="M48.896.647A74.608 74.608 0 0 1 58.682 0c3.262 0 6.524.216 9.786.647V128.79a4.541 4.541 0 0 1-4.542 4.542H53.437a4.541 4.541 0 0 1-4.541-4.542V.647z" fill="#FFF"/><g><g transform="translate(7.93 7.256)"><path d="M20.126 5.416C28.81.967 39.1-1.25 50.979-1.25c11.879 0 22.169 2.216 30.853 6.665a39.284 39.284 0 0 1 21.374 34.963v18.334a14.76 14.76 0 0 1-6.547 12.264C83.231 79.97 67.916 84.468 50.756 84.468c-17.152 0-32.349-4.493-45.55-13.48a14.76 14.76 0 0 1-6.454-12.2V40.378A39.284 39.284 0 0 1 20.126 5.416z" stroke="#FFF" stroke-width="3.179" fill="#235390"/><path d="M24.318 5.214c12.735 5.15 21.622 7.726 26.66 7.726 5.05 0 13.91-2.587 26.583-7.76a52.01 52.01 0 0 1 3.546 1.65 37.694 37.694 0 0 1 20.509 33.55v18.333a13.17 13.17 0 0 1-5.841 10.943c-13.163 8.815-28.169 13.223-45.02 13.223-16.837 0-31.723-4.402-44.654-13.205A13.17 13.17 0 0 1 .34 58.787V40.38c0-14.145 7.92-27.1 20.51-33.549a51.984 51.984 0 0 1 3.467-1.616z" fill="#78C800"/><path d="M25.868 13.76L43.33 32.659a2 2 0 0 1-.676 3.174c-6.003 2.66-13.164 1.163-17.68-3.83-4.515-4.993-5.262-12.24-1.977-17.906.683-1.18 1.953-1.35 2.87-.337z" fill="#8EE000" fill-rule="nonzero"/><path d="M39.642 29.053c5.83 6.414 16.543 6.386 22.26-.028v37.187c0-.075-7.42-.075-22.26 0a4051.344 4051.344 0 0 1 0-37.16z" fill="#8EE000"/><path d="M29.806 80.359A74.363 74.363 0 0 1 6.1 69.674a13.171 13.171 0 0 1-5.613-8.93 21.977 21.977 0 0 1-.033-1.195V43.851c0-11.945 9.684-21.629 21.63-21.629h1.803c11.945 0 21.629 9.684 21.629 21.63v15.697c0 9.894-6.643 18.236-15.711 20.81z" fill="#8EE000"/><path d="M17.122 18.28l17.104 18.913a2 2 0 0 1-.674 3.175c-6.004 2.66-13.168 1.159-17.687-3.838-4.519-4.996-5.268-12.246-1.984-17.913.683-1.18 2.325-1.35 3.241-.336zM75.455 13.746L58.351 32.658a2 2 0 0 0 .675 3.175c6.004 2.659 13.168 1.159 17.686-3.838 4.52-4.996 5.269-12.246 1.985-17.913-.684-1.18-2.325-1.35-3.242-.336z" fill="#8EE000" fill-rule="nonzero"/><path d="M84.103 18.28L67 37.194a2 2 0 0 0 .675 3.175c6.004 2.66 13.168 1.159 17.687-3.838 4.518-4.996 5.268-12.246 1.984-17.913-.683-1.18-2.325-1.35-3.242-.336z" fill="#8EE000" fill-rule="nonzero"/><path d="M78.07 21.768h1.803c11.946 0 21.63 9.684 21.63 21.63v15.698c0 11.945-9.684 21.629-21.63 21.629h-1.682c-11.88 0-21.537-9.583-21.628-21.463l-.121-15.698C56.35 31.62 65.959 21.861 77.904 21.77h.166z" fill="#8EE000"/><path d="M22.303 30.385c8.799 0 15.931 7.133 15.931 15.931v9.408c0 8.798-7.132 15.93-15.93 15.93-8.8 0-15.932-7.132-15.932-15.93v-9.408c0-8.798 7.133-15.93 15.931-15.93zM78.744 30.385c8.799 0 15.931 7.133 15.931 15.931v9.408c0 8.798-7.132 15.93-15.93 15.93-8.8 0-15.932-7.132-15.932-15.93v-9.408c0-8.798 7.133-15.93 15.931-15.93z" fill="#FFF"/><path d="M24.807 39.455a7.51 7.51 0 0 1 7.51 7.51v8.11a7.51 7.51 0 1 1-15.02 0v-8.11a7.51 7.51 0 0 1 7.51-7.51z" fill="#4B4B4B"/><path d="M50.979 57.142a8.193 8.193 0 0 1 8.193 8.193v2.208a8.193 8.193 0 0 1-16.386 0v-2.208a8.193 8.193 0 0 1 8.193-8.193z" fill="#F49000"/><path d="M39.6 66.345c.955-5.182 5.735-9.203 11.704-9.203 5.319 0 10.099 4.021 11.054 9.203v.658l-11.38 1.93-11.378-1.93v-.658z" fill="#FFC200" fill-rule="nonzero"/><path d="M48.248 61.017c1.669-.658 3.338-.658 5.007 0" stroke="#FFDE00" stroke-width="3.247" stroke-linecap="round" stroke-linejoin="round"/><path d="M76.24 39.455a7.51 7.51 0 0 1 7.511 7.51v8.11a7.51 7.51 0 0 1-15.02 0v-8.11a7.51 7.51 0 0 1 7.51-7.51z" fill="#4B4B4B"/><ellipse fill="#FFF" cx="18.434" cy="43.764" rx="4.779" ry="4.762"/><ellipse fill="#FFF" cx="68.958" cy="43.764" rx="4.779" ry="4.762"/></g></g><ellipse stroke="#235390" stroke-width="2.725" fill="#FFF" cx="31.599" cy="107.482" rx="10.466" ry="10.433"/><path d="M30.287 116.918l-1.314-5.705a.458.458 0 0 0-.489-.354l-5.61.52-.126-.308a9.427 9.427 0 0 1-.504-1.65l-.076-.369 10.22-4.128a1.358 1.358 0 0 1 1.844 1.513l-2.005 10.552-.363.01a9.76 9.76 0 0 1-1.257-.048l-.32-.033z" stroke="#235390" stroke-width=".9" fill="#235390"/><ellipse fill="#8EE000" transform="rotate(18 26.777 72.398)" cx="26.777" cy="72.398" rx="17.518" ry="7.032"/><ellipse fill="#8EE000" transform="scale(-1 1) rotate(18 0 -487.504)" cx="88.68" cy="72.398" rx="17.518" ry="7.032"/><ellipse fill="#FFF" cx="30.461" cy="26.077" rx="7.51" ry="7.483"/><path d="M27.107 15.173c8.81-4.715 19.3-7.073 31.47-7.073 11.4 0 21.256 2.123 29.572 6.37a37.694 37.694 0 0 1 20.554 33.57V66.26a13.17 13.17 0 0 1-5.915 10.991c-13.064 8.624-27.952 12.935-44.666 12.935-16.717 0-31.698-4.317-44.944-12.95A13.17 13.17 0 0 1 7.2 66.2V48.407a37.694 37.694 0 0 1 19.907-33.234z" fill="#98DDFF" opacity=".393"/></g><g><path d="M129.492 139.16l-2.46-.73c-5.267-1.563-8.423-6.89-7.16-12.194l1.788-7.509a.199.199 0 0 0 0-.093l-1.788-7.51c-1.262-5.303 1.893-10.629 7.16-12.192l7.568-2.246a.435.435 0 0 0 .17-.093l5.778-5.263c4.009-3.651 10.2-3.651 14.208 0l5.778 5.262c.045.04.103.073.17.093l7.565 2.245c5.268 1.563 8.424 6.89 7.16 12.194l-1.787 7.509a.199.199 0 0 0 0 .093l1.787 7.51c1.263 5.303-1.893 10.629-7.16 12.192l-1.927.572v18.05a1.211 1.211 0 0 1-1.503 1.175l-16.631-4.118a1.211 1.211 0 0 0-.582 0l-16.632 4.118a1.211 1.211 0 0 1-1.502-1.175v-17.89z"/><path d="M130.703 136.924h34.427c.67 0 1.212.542 1.212 1.211v18.915a1.211 1.211 0 0 1-1.503 1.175l-16.631-4.118a1.211 1.211 0 0 0-.582 0l-16.632 4.118a1.211 1.211 0 0 1-1.502-1.175v-18.915c0-.669.542-1.211 1.211-1.211z" fill="#FFB100" fill-rule="nonzero"/><path d="M140.407 136.924h15.774v19.105h-.21l-7.76-1.922a1.223 1.223 0 0 0-.588 0l-7.216 1.788v-18.971z" fill="#FFC804"/><path d="M166.39 143.473l-5.483 1.635c-.29.087-.556.237-.778.44l-5.72 5.255c-3.416 3.138-8.728 3.131-12.152-.015l-5.735-5.27a2.002 2.002 0 0 0-.778-.442l-6.283-1.888v-3.994c0-.662.543-1.2 1.214-1.2h34.501c.67 0 1.214.538 1.214 1.2v4.28z" fill-opacity=".109" fill="#000"/><path d="M135.324 138.29l-7.566-2.244c-3.997-1.186-6.389-5.223-5.432-9.24l1.788-7.509a2.657 2.657 0 0 0 0-1.232l-1.787-7.51c-.957-4.017 1.435-8.053 5.431-9.239l7.568-2.246c.432-.128.826-.35 1.153-.647l5.779-5.264c3.043-2.771 7.746-2.771 10.789 0l5.778 5.263c.326.297.72.519 1.153.647l7.566 2.245c3.997 1.186 6.389 5.223 5.432 9.24l-1.789 7.509a2.657 2.657 0 0 0 0 1.233l1.788 7.509c.956 4.017-1.435 8.053-5.431 9.239l-7.568 2.246c-.432.128-.827.35-1.153.647l-5.78 5.264c-3.042 2.771-7.745 2.771-10.788 0l-5.778-5.263a2.963 2.963 0 0 0-1.153-.647z" stroke="#FFB100" stroke-width="5.007" fill="#FFC800"/><path d="M135.407 101.658l.631-.188a5.467 5.467 0 0 0 2.126-1.196l5.78-5.264c2.087-1.901 5.33-1.901 7.417 0l5.778 5.263a5.467 5.467 0 0 0 2.127 1.196l7.566 2.245c2.733.811 4.354 3.548 3.708 6.26l-1.788 7.509a5.16 5.16 0 0 0 0 2.392l1.788 7.51c.6 2.52-.757 5.06-3.145 6.058l-31.988-31.785zM126.632 117.908a5.172 5.172 0 0 0-.082-.423l-1.788-7.51a5.194 5.194 0 0 1 1.268-4.752l31.637 31.438c-.185.13-.362.272-.53.425l-5.779 5.264-.068.06-24.658-24.502z" fill="#FFD900"/><path d="M153.79 120.376v6.731a1.32 1.32 0 0 1-1.325 1.315h-9.58a1.32 1.32 0 0 1-1.324-1.315v-6.731h-4.629a1.222 1.222 0 0 1-1.226-1.218c0-.342.145-.668.398-.899l10.677-9.715a1.33 1.33 0 0 1 1.788 0l10.676 9.715c.5.455.534 1.225.077 1.721a1.23 1.23 0 0 1-.904.396h-4.629z" fill="#FFF"/></g><path d="M170.85 110.753l1.894-1.142a7.754 7.754 0 0 1 11.756 6.829l-.147 6.047a7.19 7.19 0 0 1-12.048 5.122l-2.88-2.644a8.92 8.92 0 0 1 1.425-14.212zM54.71 140.601l2.12.821a7.577 7.577 0 0 1 1.778 13.15l-4.531 3.362a7.027 7.027 0 0 1-11.196-6.163l.287-3.875A8.496 8.496 0 0 1 54.71 140.6z" fill="#3072C6"/></g></g></svg>